<?xml version="1.0" encoding="UTF-8"?>
<!-- Do not edit this file with editors other than draw.io -->
<!DOCTYPE svg PUBLIC "-//W3C//DTD SVG 1.1//EN" "http://www.w3.org/Graphics/SVG/1.1/DTD/svg11.dtd">
<svg xmlns="http://www.w3.org/2000/svg" xmlns:xlink="http://www.w3.org/1999/xlink" version="1.1" width="126px" height="126px" viewBox="-0.5 -0.5 126 126" content="&lt;mxfile host=&quot;app.diagrams.net&quot; modified=&quot;2024-03-13T10:05:37.194Z&quot; agent=&quot;Mozilla/5.0 (Windows NT 10.0; Win64; x64) AppleWebKit/537.36 (KHTML, like Gecko) Chrome/122.0.0.0 Safari/537.36&quot; etag=&quot;0U9ei8dYrhWVEArqWGMR&quot; version=&quot;24.0.5&quot; scale=&quot;1&quot; border=&quot;0&quot;&gt;&#10;  &lt;diagram name=&quot;Trang-1&quot; id=&quot;ZTh9iQ7QJF8U75bgEMFq&quot;&gt;&#10;    &lt;mxGraphModel dx=&quot;2074&quot; dy=&quot;580&quot; grid=&quot;0&quot; gridSize=&quot;10&quot; guides=&quot;1&quot; tooltips=&quot;1&quot; connect=&quot;1&quot; arrows=&quot;1&quot; fold=&quot;1&quot; page=&quot;0&quot; pageScale=&quot;1&quot; pageWidth=&quot;827&quot; pageHeight=&quot;1169&quot; math=&quot;0&quot; shadow=&quot;0&quot;&gt;&#10;      &lt;root&gt;&#10;        &lt;mxCell id=&quot;0&quot; /&gt;&#10;        &lt;mxCell id=&quot;1&quot; parent=&quot;0&quot; /&gt;&#10;        &lt;mxCell id=&quot;4vruPpxKQFFbDWzt0m8P-1&quot; value=&quot;&quot; style=&quot;sketch=0;points=[[0,0,0],[0.25,0,0],[0.5,0,0],[0.75,0,0],[1,0,0],[0,1,0],[0.25,1,0],[0.5,1,0],[0.75,1,0],[1,1,0],[0,0.25,0],[0,0.5,0],[0,0.75,0],[1,0.25,0],[1,0.5,0],[1,0.75,0]];outlineConnect=0;fontColor=#232F3E;fillColor=#3333FF;strokeColor=#ffffff;dashed=0;verticalLabelPosition=bottom;verticalAlign=top;align=center;html=1;fontSize=12;fontStyle=0;aspect=fixed;shape=mxgraph.aws4.resourceIcon;resIcon=mxgraph.aws4.dynamodb;&quot; vertex=&quot;1&quot; parent=&quot;1&quot;&gt;&#10;          &lt;mxGeometry x=&quot;370&quot; y=&quot;460&quot; width=&quot;125&quot; height=&quot;125&quot; as=&quot;geometry&quot; /&gt;&#10;        &lt;/mxCell&gt;&#10;      &lt;/root&gt;&#10;    &lt;/mxGraphModel&gt;&#10;  &lt;/diagram&gt;&#10;&lt;/mxfile&gt;&#10;" style="background-color: rgb(255, 255, 255);"><defs/><rect fill="#ffffff" width="100%" height="100%" x="0" y="0"/><g><g><path d="M 0 0 L 125 0 L 125 125 L 0 125 Z" fill="#3333ff" stroke="none" pointer-events="all"/><path d="M 84.01 89.02 C 78.05 93.84 65.55 96.38 53.58 96.38 C 41.61 96.38 29.1 93.84 23.15 89.02 L 23.15 98.72 L 23.15 98.72 C 23.15 103.56 35.65 108.96 53.58 108.96 C 71.5 108.96 83.99 103.57 84.01 98.73 Z M 84.02 70.58 L 87.59 70.56 L 87.59 70.58 C 87.59 72.73 86.51 74.75 84.4 76.59 C 86.95 78.83 87.59 81.04 87.59 82.6 C 87.59 82.61 87.58 82.62 87.58 82.63 L 87.58 98.72 L 87.59 98.72 C 87.59 107.67 70.07 112.5 53.58 112.5 C 37.14 112.5 19.66 107.69 19.58 98.78 C 19.58 98.78 19.57 98.77 19.57 98.76 L 19.57 82.6 C 19.57 82.59 19.58 82.59 19.58 82.58 C 19.58 81.02 20.22 78.82 22.77 76.59 C 20.23 74.35 19.59 72.17 19.58 70.61 L 19.58 70.61 C 19.58 70.61 19.57 70.6 19.57 70.59 L 19.57 54.44 C 19.57 54.43 19.58 54.43 19.58 54.42 C 19.58 52.85 20.22 50.66 22.77 48.42 C 20.23 46.19 19.59 44.01 19.58 42.45 L 19.58 42.45 C 19.58 42.44 19.57 42.44 19.57 42.43 L 19.57 26.27 C 19.57 26.27 19.58 26.26 19.58 26.26 C 19.61 17.32 37.11 12.5 53.58 12.5 C 62.89 12.5 71.83 13.98 78.11 16.56 L 76.74 19.83 C 70.88 17.42 62.44 16.04 53.58 16.04 C 35.65 16.04 23.15 21.44 23.15 26.28 C 23.15 31.12 35.65 36.52 53.58 36.52 C 54.07 36.52 54.54 36.52 55.02 36.5 L 55.17 40.04 C 54.64 40.06 54.11 40.06 53.58 40.06 C 41.61 40.06 29.1 37.51 23.15 32.69 L 23.15 42.39 L 23.15 42.39 L 23.15 42.43 C 23.17 44.29 25.07 45.91 26.67 46.94 C 31.47 50.01 40.08 52.1 49.68 52.53 L 49.51 56.07 C 39.79 55.63 31.28 53.61 25.8 50.52 C 24.45 51.53 23.15 52.9 23.15 54.44 C 23.15 59.29 35.65 64.68 53.58 64.68 C 55.34 64.68 57.09 64.62 58.77 64.51 L 59.02 68.04 C 57.25 68.16 55.42 68.22 53.58 68.22 C 41.61 68.22 29.1 65.67 23.15 60.86 L 23.15 70.56 L 23.15 70.56 C 23.17 72.46 25.07 74.08 26.67 75.11 C 32.16 78.61 42.47 80.79 53.58 80.79 L 54.37 80.79 L 54.37 84.34 L 53.58 84.34 C 42.3 84.34 32.04 82.24 25.77 78.7 C 24.43 79.71 23.15 81.07 23.15 82.6 C 23.15 87.45 35.65 92.84 53.58 92.84 C 71.5 92.84 83.99 87.45 84.01 82.62 L 84.01 82.6 L 84.01 82.6 C 84.01 81.06 82.72 79.7 81.38 78.69 C 80.51 79.19 79.57 79.66 78.51 80.1 L 77.14 76.83 C 78.44 76.29 79.56 75.72 80.49 75.11 C 82.1 74.06 84.02 72.42 84.02 70.58 Z M 99.31 44.67 L 89.3 44.67 C 88.71 44.67 88.16 44.38 87.83 43.9 C 87.49 43.41 87.43 42.79 87.64 42.25 L 93.73 27.03 L 70.68 27.03 L 59.97 48.29 L 71.36 48.29 C 71.93 48.29 72.47 48.56 72.8 49.01 C 73.14 49.47 73.24 50.06 73.06 50.59 L 62.89 82.3 Z M 104.79 44.13 L 60.15 90.25 C 59.8 90.61 59.33 90.79 58.86 90.79 C 58.55 90.79 58.23 90.71 57.95 90.54 C 57.23 90.12 56.91 89.27 57.16 88.49 L 68.92 51.83 L 57.08 51.83 C 56.46 51.83 55.88 51.51 55.56 50.99 C 55.23 50.47 55.2 49.81 55.48 49.27 L 67.98 24.47 C 68.28 23.87 68.9 23.49 69.58 23.49 L 96.36 23.49 C 96.95 23.49 97.51 23.78 97.84 24.27 C 98.17 24.75 98.24 25.37 98.02 25.91 L 91.93 41.13 L 103.5 41.13 C 104.22 41.13 104.87 41.56 105.15 42.21 C 105.43 42.86 105.29 43.62 104.79 44.13 Z M 25.74 99.42 C 28.27 100.84 31.46 102.04 35.21 102.98 L 36.08 99.54 C 32.69 98.7 29.73 97.59 27.51 96.34 Z M 35.21 74.64 L 36.08 71.21 C 32.69 70.36 29.73 69.25 27.51 68 L 25.74 71.08 C 28.27 72.51 31.46 73.71 35.21 74.64 Z M 25.74 42.74 L 27.51 39.66 C 29.72 40.91 32.69 42.02 36.08 42.87 L 35.21 46.3 C 31.45 45.36 28.27 44.17 25.74 42.74 Z" fill="#ffffff" stroke="none" pointer-events="all"/></g></g></svg>